<svg width="34" height="33" viewBox="0 0 34 33" fill="none" xmlns="http://www.w3.org/2000/svg">
<g filter="url(#filter0_i_1_43)">
<circle cx="17" cy="16.5" r="16.5" fill="#FCFFFE"/>
</g>
<circle cx="17" cy="16.5" r="16" stroke="#FCFFFE"/>
<path d="M9 25V10.7778C9 10.2889 9.19006 9.87022 9.57018 9.52178C9.94966 9.17393 10.4061 9 10.9394 9H16.7576C17.2909 9 17.7476 9.17393 18.1278 9.52178C18.5072 9.87022 18.697 10.2889 18.697 10.7778V17H19.6667C20.2 17 20.6567 17.1739 21.0368 17.5218C21.4163 17.8702 21.6061 18.2889 21.6061 18.7778V22.7778C21.6061 23.0296 21.6992 23.2406 21.8853 23.4107C22.0709 23.5813 22.301 23.6667 22.5758 23.6667C22.8505 23.6667 23.0806 23.5813 23.2662 23.4107C23.4524 23.2406 23.5455 23.0296 23.5455 22.7778V16.3778C23.4 16.4519 23.2465 16.4999 23.0848 16.5218C22.9232 16.5443 22.7535 16.5556 22.5758 16.5556C21.897 16.5556 21.3232 16.3407 20.8545 15.9111C20.3859 15.4815 20.1515 14.9556 20.1515 14.3333C20.1515 13.8593 20.2931 13.4332 20.5762 13.0551C20.8587 12.6776 21.2343 12.4074 21.703 12.2444L19.6667 10.3778L20.6848 9.44444L24.2727 12.6444C24.5152 12.8667 24.6968 13.1259 24.8177 13.4222C24.9392 13.7185 25 14.0222 25 14.3333V22.7778C25 23.4 24.7657 23.9259 24.297 24.3556C23.8283 24.7852 23.2545 25 22.5758 25C21.897 25 21.3232 24.7852 20.8545 24.3556C20.3859 23.9259 20.1515 23.4 20.1515 22.7778V18.3333H18.697V25H9ZM10.9394 15.2222H16.7576V10.7778H10.9394V15.2222ZM22.5758 15.2222C22.8505 15.2222 23.0806 15.1369 23.2662 14.9662C23.4524 14.7961 23.5455 14.5852 23.5455 14.3333C23.5455 14.0815 23.4524 13.8702 23.2662 13.6996C23.0806 13.5295 22.8505 13.4444 22.5758 13.4444C22.301 13.4444 22.0709 13.5295 21.8853 13.6996C21.6992 13.8702 21.6061 14.0815 21.6061 14.3333C21.6061 14.5852 21.6992 14.7961 21.8853 14.9662C22.0709 15.1369 22.301 15.2222 22.5758 15.2222Z" fill="#00B488"/>
<defs>
<filter id="filter0_i_1_43" x="0.5" y="0" width="33" height="35" filterUnits="userSpaceOnUse" color-interpolation-filters="sRGB">
<feFlood flood-opacity="0" result="BackgroundImageFix"/>
<feBlend mode="normal" in="SourceGraphic" in2="BackgroundImageFix" result="shape"/>
<feColorMatrix in="SourceAlpha" type="matrix" values="0 0 0 0 0 0 0 0 0 0 0 0 0 0 0 0 0 0 127 0" result="hardAlpha"/>
<feOffset dy="2"/>
<feGaussianBlur stdDeviation="5"/>
<feComposite in2="hardAlpha" operator="arithmetic" k2="-1" k3="1"/>
<feColorMatrix type="matrix" values="0 0 0 0 0 0 0 0 0 0 0 0 0 0 0 0 0 0 0.05 0"/>
<feBlend mode="normal" in2="shape" result="effect1_innerShadow_1_43"/>
</filter>
</defs>
</svg>
