<svg width="141" height="31" viewBox="0 0 141 31" fill="none" xmlns="http://www.w3.org/2000/svg">
<rect y="1.52588e-05" width="3.77258" height="31" fill="#303030"/>
<rect x="12.7324" width="3.77258" height="31" fill="#303030"/>
<rect x="26.4079" width="6.13044" height="31" fill="#303030"/>
<rect x="6.13042" width="0.943145" height="31" fill="#303030"/>
<rect x="9.43153" width="0.943145" height="31" fill="#303030"/>
<rect x="34.8964" width="0.943145" height="31" fill="#303030"/>
<rect x="23.1068" width="0.943145" height="31" fill="#303030"/>
<rect x="18.8628" width="1.88629" height="31" fill="#303030"/>
<rect x="42.4415" width="0.943145" height="31" fill="#303030"/>
<rect x="38.1973" width="1.88629" height="31" fill="#303030"/>
<rect x="45.7423" width="3.77258" height="31" fill="#303030"/>
<rect x="58.4747" width="3.77258" height="31" fill="#303030"/>
<rect x="72.1502" width="6.13044" height="31" fill="#303030"/>
<rect x="51.873" width="0.943145" height="31" fill="#303030"/>
<rect x="55.1739" width="0.943145" height="31" fill="#303030"/>
<rect x="80.6389" width="0.943145" height="31" fill="#303030"/>
<rect x="68.8496" width="0.943145" height="31" fill="#303030"/>
<rect x="64.6054" width="1.88629" height="31" fill="#303030"/>
<rect x="88.1843" width="0.943145" height="31" fill="#303030"/>
<rect x="83.9395" width="1.88629" height="31" fill="#303030"/>
<rect x="91.4851" width="3.77258" height="31" fill="#303030"/>
<rect x="104.218" width="3.77258" height="31" fill="#303030"/>
<rect x="117.893" width="6.13044" height="31" fill="#303030"/>
<rect x="97.6156" width="0.943145" height="31" fill="#303030"/>
<rect x="100.917" width="0.943145" height="31" fill="#303030"/>
<rect x="126.381" width="0.943145" height="31" fill="#303030"/>
<rect x="114.592" width="0.943145" height="31" fill="#303030"/>
<rect x="110.348" width="1.88629" height="31" fill="#303030"/>
<rect x="133.927" width="0.943145" height="31" fill="#303030"/>
<rect x="129.682" width="1.88629" height="31" fill="#303030"/>
<rect x="137.227" width="3.77258" height="31" fill="#303030"/>
</svg>
