<svg width="67" height="91" viewBox="0 0 67 91" fill="none" xmlns="http://www.w3.org/2000/svg">
<path d="M66.005 57.4898C66.005 75.4418 51.452 89.9949 33.5 89.9949C24.5764 89.9949 16.4496 85.7 10.535 79.4436C4.61303 73.1795 0.99505 65.0395 0.99505 57.4898C0.995056 51.1038 3.78407 45.4936 7.68927 39.6896C9.17421 37.4826 10.8008 35.275 12.4828 32.9923C13.0143 32.271 13.5513 31.5421 14.0911 30.8034C16.33 27.7398 18.6005 24.5283 20.6469 21.0691C25.3482 13.1216 26.9769 7.8603 26.9769 1.54601C26.9769 1.19002 27.0378 1.0454 27.0605 1.00355C27.0884 0.996742 27.1477 0.989594 27.2568 0.999928C27.5136 1.02424 27.8954 1.13754 28.4061 1.37851C28.9052 1.61399 29.4728 1.9449 30.088 2.35095C32.5662 3.98656 35.5248 6.64261 37.3531 8.35345C60.0394 29.5815 66.005 43.1016 66.005 57.4898ZM27.0397 1.01152C27.0393 1.01114 27.0423 1.00911 27.0498 1.00659C27.0439 1.01065 27.0401 1.01191 27.0397 1.01152Z" fill="#00B488" stroke="#FCFFFE" stroke-width="1.9901"/>
<path d="M60.698 63.3166C60.698 77.774 48.5539 89.5526 33.5 89.5526C26.0294 89.5526 19.2261 86.0796 14.2756 81.0217C9.316 75.9546 6.30193 69.3856 6.30193 63.3166C6.30194 58.1728 8.51043 53.4571 11.7208 48.6657C13.324 46.273 15.1572 43.8895 17.0626 41.4379C17.2247 41.2294 17.3873 41.0203 17.5503 40.8108C19.2968 38.5655 21.0893 36.2612 22.7751 33.8734C28.6418 25.5633 30.2871 22.6169 31.8858 16.6452C31.9213 16.5128 31.9564 16.4338 31.9804 16.3897C32.0619 16.4049 32.2075 16.4515 32.4278 16.5718C32.679 16.7089 32.9761 16.9133 33.3176 17.1861C34.4136 18.0618 35.7041 19.4207 37.0577 20.8462C37.4362 21.2448 37.8198 21.6487 38.2053 22.0486C56.0628 40.5716 60.698 51.6739 60.698 63.3166Z" fill="#FCFFFE" stroke="#FCFFFE" stroke-width="1.9901"/>
<path d="M28.2952 80.404C29.4223 82.8976 30.9637 85.014 32.4384 86.6044C27.4897 85.8839 23.0216 83.2505 19.6207 79.6498C15.5994 75.3921 13.1568 69.8722 13.1568 64.7783C13.1568 60.4655 14.9431 56.5053 17.5548 52.4657C18.8593 50.4482 20.3515 48.4374 21.9059 46.3648C22.0382 46.1885 22.1709 46.0117 22.3039 45.8344C23.7282 43.9369 25.1925 41.9862 26.5696 39.9647C31.2229 33.134 32.1913 30.4472 33.8067 25.9653C33.868 25.7952 33.9303 25.6225 33.9937 25.4469C34.002 25.4238 34.0099 25.4042 34.0171 25.3876C34.2016 25.4422 34.5428 25.6205 35.0527 26.0332C36.157 26.9271 37.4825 28.4326 38.7538 29.8766L38.8341 29.9678C52.9533 46.003 57.1601 54.9973 57.1601 64.7783C57.1601 74.0139 51.4804 81.923 43.4262 85.1944C52.1337 68.0837 46.9761 55.6402 42.8454 51.29L40.7808 49.1158L41.1357 52.093C41.8146 57.7864 41.6548 61.767 40.9989 64.4707C40.3456 67.1639 39.2323 68.4801 38.0726 69.0676C36.8911 69.6661 35.4216 69.6315 33.8141 69.1105C32.2142 68.5921 30.5987 67.6273 29.2526 66.5627L28.1849 65.7184L27.7044 66.9919C25.8214 71.9819 26.5966 76.6458 28.2952 80.404Z" fill="#DC0000" stroke="#DC0000" stroke-width="1.9901"/>
</svg>
