<svg width="20" height="17" viewBox="0 0 20 17" fill="none" xmlns="http://www.w3.org/2000/svg">
<path d="M0 1.21429C0 0.892237 0.127934 0.583379 0.355656 0.355656C0.583379 0.127934 0.892237 0 1.21429 0H18.2143C18.5363 0 18.8452 0.127934 19.0729 0.355656C19.3006 0.583379 19.4286 0.892237 19.4286 1.21429C19.4286 1.53633 19.3006 1.84519 19.0729 2.07292C18.8452 2.30064 18.5363 2.42857 18.2143 2.42857H1.21429C0.892237 2.42857 0.583379 2.30064 0.355656 2.07292C0.127934 1.84519 0 1.53633 0 1.21429ZM0 15.7857C0 15.4637 0.127934 15.1548 0.355656 14.9271C0.583379 14.6994 0.892237 14.5714 1.21429 14.5714H18.2143C18.5363 14.5714 18.8452 14.6994 19.0729 14.9271C19.3006 15.1548 19.4286 15.4637 19.4286 15.7857C19.4286 16.1078 19.3006 16.4166 19.0729 16.6443C18.8452 16.8721 18.5363 17 18.2143 17H1.21429C0.892237 17 0.583379 16.8721 0.355656 16.6443C0.127934 16.4166 0 16.1078 0 15.7857ZM4.5 7.28571C4.17795 7.28571 3.86909 7.41365 3.64137 7.64137C3.41365 7.86909 3.28571 8.17795 3.28571 8.5C3.28571 8.82205 3.41365 9.13091 3.64137 9.35863C3.86909 9.58635 4.17795 9.71429 4.5 9.71429H18.2143C18.5363 9.71429 18.8452 9.58635 19.0729 9.35863C19.3006 9.13091 19.4286 8.82205 19.4286 8.5C19.4286 8.17795 19.3006 7.86909 19.0729 7.64137C18.8452 7.41365 18.5363 7.28571 18.2143 7.28571H4.5Z" fill="#303030"/>
</svg>
