<svg width="33" height="33" viewBox="0 0 33 33" fill="none" xmlns="http://www.w3.org/2000/svg">
<g filter="url(#filter0_i_1_50)">
<circle cx="16.5" cy="16.5" r="16.5" fill="#FCFFFE"/>
</g>
<circle cx="16.5" cy="16.5" r="16" stroke="#FCFFFE"/>
<path d="M24.2 24H9.8C9.32261 24 8.86477 23.8156 8.52721 23.4874C8.18964 23.1592 8 22.7141 8 22.25V11.75C8 11.2859 8.18964 10.8408 8.52721 10.5126C8.86477 10.1844 9.32261 10 9.8 10H24.2C24.6774 10 25.1352 10.1844 25.4728 10.5126C25.8104 10.8408 26 11.2859 26 11.75V22.25C26 22.7141 25.8104 23.1592 25.4728 23.4874C25.1352 23.8156 24.6774 24 24.2 24ZM10.7 17.875V19.625H20.6V17.875H10.7ZM10.7 14.375V16.125H23.3V14.375H10.7Z" fill="#00B488"/>
<defs>
<filter id="filter0_i_1_50" x="0" y="0" width="33" height="35" filterUnits="userSpaceOnUse" color-interpolation-filters="sRGB">
<feFlood flood-opacity="0" result="BackgroundImageFix"/>
<feBlend mode="normal" in="SourceGraphic" in2="BackgroundImageFix" result="shape"/>
<feColorMatrix in="SourceAlpha" type="matrix" values="0 0 0 0 0 0 0 0 0 0 0 0 0 0 0 0 0 0 127 0" result="hardAlpha"/>
<feOffset dy="2"/>
<feGaussianBlur stdDeviation="5"/>
<feComposite in2="hardAlpha" operator="arithmetic" k2="-1" k3="1"/>
<feColorMatrix type="matrix" values="0 0 0 0 0 0 0 0 0 0 0 0 0 0 0 0 0 0 0.05 0"/>
<feBlend mode="normal" in2="shape" result="effect1_innerShadow_1_50"/>
</filter>
</defs>
</svg>
