<svg width="54" height="75" viewBox="0 0 54 75" fill="none" xmlns="http://www.w3.org/2000/svg">
<g filter="url(#filter0_d_1_115)">
<g filter="url(#filter1_di_1_115)">
<path d="M43.495 36.174C43.495 45.2839 36.11 52.669 27 52.669C22.4716 52.669 18.3476 50.4895 15.3461 47.3147C12.3409 44.1359 10.505 40.0051 10.505 36.174C10.505 32.9333 11.9203 30.0863 13.902 27.141C14.6556 26.021 15.481 24.9007 16.3345 23.7424C16.6043 23.3763 16.8768 23.0064 17.1507 22.6316C18.2869 21.0769 19.4391 19.4472 20.4775 17.6918C22.8633 13.6587 23.6898 10.9888 23.6898 7.78454C23.6898 7.60389 23.7207 7.5305 23.7322 7.50927C23.7464 7.50581 23.7764 7.50218 23.8318 7.50743C23.9621 7.51976 24.1559 7.57726 24.415 7.69954C24.6683 7.81904 24.9563 7.98696 25.2685 8.19302C26.5261 9.02303 28.0275 10.3709 28.9553 11.2391C40.4678 22.0115 43.495 28.8725 43.495 36.174ZM23.7216 7.51331C23.7214 7.51311 23.7229 7.51208 23.7268 7.5108C23.7238 7.51286 23.7218 7.51351 23.7216 7.51331Z" fill="#00B488" stroke="#FCFFFE" stroke-width="1.0099"/>
<path d="M40.802 39.1308C40.802 46.4674 34.6393 52.4446 27 52.4446C23.2089 52.4446 19.7565 50.6822 17.2443 48.1155C14.7275 45.5442 13.198 42.2106 13.198 39.1308C13.198 36.5205 14.3187 34.1275 15.9479 31.696C16.7614 30.4818 17.6917 29.2723 18.6586 28.0282C18.7409 27.9224 18.8234 27.8163 18.9061 27.71C19.7924 26.5706 20.7021 25.4012 21.5575 24.1895C24.5346 19.9724 25.3695 18.4772 26.1809 15.4468C26.1989 15.3797 26.2167 15.3395 26.2289 15.3172C26.2702 15.3249 26.3441 15.3486 26.4559 15.4096C26.5834 15.4792 26.7342 15.5829 26.9074 15.7213C27.4636 16.1657 28.1185 16.8553 28.8054 17.5787C28.9975 17.781 29.1921 17.9859 29.3878 18.1889C38.4498 27.5886 40.802 33.2226 40.802 39.1308Z" fill="#FCFFFE" stroke="#FCFFFE" stroke-width="1.0099"/>
<path d="M24.3587 47.802C24.9306 49.0674 25.7129 50.1414 26.4612 50.9485C23.9499 50.5829 21.6825 49.2466 19.9567 47.4193C17.9161 45.2587 16.6765 42.4576 16.6765 39.8726C16.6765 37.684 17.583 35.6743 18.9084 33.6244C19.5703 32.6006 20.3276 31.5802 21.1164 30.5284C21.1835 30.4389 21.2508 30.3492 21.3184 30.2592C22.0411 29.2964 22.7842 28.3064 23.483 27.2806C25.8444 23.8143 26.3358 22.4508 27.1556 20.1764C27.1867 20.0901 27.2183 20.0024 27.2505 19.9133C27.2547 19.9017 27.2587 19.8917 27.2623 19.8833C27.356 19.911 27.5291 20.0015 27.7879 20.2109C28.3483 20.6645 29.0209 21.4285 29.666 22.1613L29.7068 22.2075C36.8718 30.3448 39.0066 34.9091 39.0066 39.8726C39.0066 44.5593 36.1243 48.5729 32.0371 50.233C36.4558 41.5499 33.8386 35.2353 31.7424 33.0278L30.6947 31.9244L30.8748 33.4353C31.2193 36.3244 31.1382 38.3444 30.8053 39.7165C30.4738 41.0832 29.9089 41.7511 29.3204 42.0492C28.7208 42.3529 27.9751 42.3354 27.1593 42.071C26.3475 41.8079 25.5276 41.3183 24.8445 40.7781L24.3027 40.3496L24.0589 40.9959C23.1033 43.5281 23.4967 45.8949 24.3587 47.802Z" fill="#DC0000" stroke="#DC0000" stroke-width="1.0099"/>
</g>
<path d="M14.0054 65.974C14.0174 68.83 16.1774 70.27 18.3134 70.258C20.1014 70.258 21.9854 69.322 22.2974 66.946C21.5654 66.946 20.9054 66.946 20.1854 66.946C19.9574 67.846 19.2254 68.302 18.3134 68.302C17.0414 68.29 16.2254 67.21 16.2254 65.974C16.2254 64.582 17.0534 63.634 18.3134 63.634C19.2134 63.634 19.8494 64.018 20.1494 64.87C20.8814 64.87 21.5294 64.87 22.2614 64.87C21.9374 62.626 20.0534 61.678 18.3134 61.678C16.1774 61.678 14.0174 63.118 14.0054 65.974ZM29.283 70.174H31.383V69.862L27.591 61.666H26.667L22.887 69.862V70.174H24.987L25.479 69.118H28.791L29.283 70.174ZM28.095 67.282H26.175L27.123 65.074L28.095 67.282ZM39.482 61.774C38.75 61.774 38.018 61.774 37.286 61.774V64.822H34.694V61.774C33.962 61.774 33.218 61.774 32.498 61.774V70.174C33.218 70.174 33.962 70.174 34.694 70.174V66.802H37.286V70.174C38.018 70.174 38.75 70.174 39.482 70.174V61.774Z" fill="#303030"/>
</g>
<defs>
<filter id="filter0_d_1_115" x="8" y="7" width="38" height="67.27" filterUnits="userSpaceOnUse" color-interpolation-filters="sRGB">
<feFlood flood-opacity="0" result="BackgroundImageFix"/>
<feColorMatrix in="SourceAlpha" type="matrix" values="0 0 0 0 0 0 0 0 0 0 0 0 0 0 0 0 0 0 127 0" result="hardAlpha"/>
<feOffset dy="2"/>
<feGaussianBlur stdDeviation="1"/>
<feComposite in2="hardAlpha" operator="out"/>
<feColorMatrix type="matrix" values="0 0 0 0 0 0 0 0 0 0 0 0 0 0 0 0 0 0 0.15 0"/>
<feBlend mode="normal" in2="BackgroundImageFix" result="effect1_dropShadow_1_115"/>
<feBlend mode="normal" in="SourceGraphic" in2="effect1_dropShadow_1_115" result="shape"/>
</filter>
<filter id="filter1_di_1_115" x="0" y="0" width="54" height="66.174" filterUnits="userSpaceOnUse" color-interpolation-filters="sRGB">
<feFlood flood-opacity="0" result="BackgroundImageFix"/>
<feColorMatrix in="SourceAlpha" type="matrix" values="0 0 0 0 0 0 0 0 0 0 0 0 0 0 0 0 0 0 127 0" result="hardAlpha"/>
<feOffset dy="3"/>
<feGaussianBlur stdDeviation="5"/>
<feComposite in2="hardAlpha" operator="out"/>
<feColorMatrix type="matrix" values="0 0 0 0 0 0 0 0 0 0 0 0 0 0 0 0 0 0 0.2 0"/>
<feBlend mode="normal" in2="BackgroundImageFix" result="effect1_dropShadow_1_115"/>
<feBlend mode="normal" in="SourceGraphic" in2="effect1_dropShadow_1_115" result="shape"/>
<feColorMatrix in="SourceAlpha" type="matrix" values="0 0 0 0 0 0 0 0 0 0 0 0 0 0 0 0 0 0 127 0" result="hardAlpha"/>
<feOffset dy="2"/>
<feGaussianBlur stdDeviation="2"/>
<feComposite in2="hardAlpha" operator="arithmetic" k2="-1" k3="1"/>
<feColorMatrix type="matrix" values="0 0 0 0 0 0 0 0 0 0 0 0 0 0 0 0 0 0 0.05 0"/>
<feBlend mode="normal" in2="shape" result="effect2_innerShadow_1_115"/>
</filter>
</defs>
</svg>
