<svg width="33" height="33" viewBox="0 0 33 33" fill="none" xmlns="http://www.w3.org/2000/svg">
<g filter="url(#filter0_i_1_32)">
<circle cx="16.5" cy="16.5" r="16.5" fill="#FCFFFE"/>
</g>
<circle cx="16.5" cy="16.5" r="16" stroke="#FCFFFE"/>
<path d="M16.5 7C11.275 7 7 11.275 7 16.5C7 21.725 11.275 26 16.5 26C21.725 26 26 21.725 26 16.5C26 11.275 21.725 7 16.5 7ZM13.4885 11.7975C14.4195 11.7975 15.17 12.548 15.17 13.4885C15.17 14.4195 14.4195 15.17 13.4885 15.17C12.548 15.17 11.7975 14.4195 11.7975 13.4885C11.7975 12.548 12.548 11.7975 13.4885 11.7975ZM19.559 21.25C18.628 21.25 17.8775 20.49 17.8775 19.559C17.8775 18.628 18.628 17.8775 19.559 17.8775C20.49 17.8775 21.25 18.628 21.25 19.559C21.25 20.49 20.49 21.25 19.559 21.25ZM13.175 21.2785L11.75 19.8535L19.8535 11.75L21.2785 13.175L13.175 21.2785Z" fill="#00B488"/>
<defs>
<filter id="filter0_i_1_32" x="0" y="0" width="33" height="35" filterUnits="userSpaceOnUse" color-interpolation-filters="sRGB">
<feFlood flood-opacity="0" result="BackgroundImageFix"/>
<feBlend mode="normal" in="SourceGraphic" in2="BackgroundImageFix" result="shape"/>
<feColorMatrix in="SourceAlpha" type="matrix" values="0 0 0 0 0 0 0 0 0 0 0 0 0 0 0 0 0 0 127 0" result="hardAlpha"/>
<feOffset dy="2"/>
<feGaussianBlur stdDeviation="5"/>
<feComposite in2="hardAlpha" operator="arithmetic" k2="-1" k3="1"/>
<feColorMatrix type="matrix" values="0 0 0 0 0 0 0 0 0 0 0 0 0 0 0 0 0 0 0.05 0"/>
<feBlend mode="normal" in2="shape" result="effect1_innerShadow_1_32"/>
</filter>
</defs>
</svg>
