<svg width="53" height="53" viewBox="0 0 53 53" fill="none" xmlns="http://www.w3.org/2000/svg">
<g filter="url(#filter0_di_1_172)">
<circle cx="26.5" cy="22.5" r="16.5" fill="#FCFFFE"/>
<circle cx="26.5" cy="22.5" r="16" stroke="#FCFFFE"/>
</g>
<path d="M26.5 13C21.275 13 17 17.275 17 22.5C17 27.725 21.275 32 26.5 32C31.725 32 36 27.725 36 22.5C36 17.275 31.725 13 26.5 13ZM23.4885 17.7975C24.4195 17.7975 25.17 18.548 25.17 19.4885C25.17 20.4195 24.4195 21.17 23.4885 21.17C22.548 21.17 21.7975 20.4195 21.7975 19.4885C21.7975 18.548 22.548 17.7975 23.4885 17.7975ZM29.559 27.25C28.628 27.25 27.8775 26.49 27.8775 25.559C27.8775 24.628 28.628 23.8775 29.559 23.8775C30.49 23.8775 31.25 24.628 31.25 25.559C31.25 26.49 30.49 27.25 29.559 27.25ZM23.175 27.2785L21.75 25.8535L29.8535 17.75L31.2785 19.175L23.175 27.2785Z" fill="#00B488"/>
<defs>
<filter id="filter0_di_1_172" x="0" y="0" width="53" height="53" filterUnits="userSpaceOnUse" color-interpolation-filters="sRGB">
<feFlood flood-opacity="0" result="BackgroundImageFix"/>
<feColorMatrix in="SourceAlpha" type="matrix" values="0 0 0 0 0 0 0 0 0 0 0 0 0 0 0 0 0 0 127 0" result="hardAlpha"/>
<feOffset dy="4"/>
<feGaussianBlur stdDeviation="5"/>
<feComposite in2="hardAlpha" operator="out"/>
<feColorMatrix type="matrix" values="0 0 0 0 0.15 0 0 0 0 0.1475 0 0 0 0 0.1475 0 0 0 0.07 0"/>
<feBlend mode="normal" in2="BackgroundImageFix" result="effect1_dropShadow_1_172"/>
<feBlend mode="normal" in="SourceGraphic" in2="effect1_dropShadow_1_172" result="shape"/>
<feColorMatrix in="SourceAlpha" type="matrix" values="0 0 0 0 0 0 0 0 0 0 0 0 0 0 0 0 0 0 127 0" result="hardAlpha"/>
<feOffset dy="2"/>
<feGaussianBlur stdDeviation="2"/>
<feComposite in2="hardAlpha" operator="arithmetic" k2="-1" k3="1"/>
<feColorMatrix type="matrix" values="0 0 0 0 0 0 0 0 0 0 0 0 0 0 0 0 0 0 0.05 0"/>
<feBlend mode="normal" in2="shape" result="effect2_innerShadow_1_172"/>
</filter>
</defs>
</svg>
