<svg width="53" height="53" viewBox="0 0 53 53" fill="none" xmlns="http://www.w3.org/2000/svg">
<g filter="url(#filter0_di_1_159)">
<circle cx="26.5" cy="22.5" r="16.5" fill="#FCFFFE"/>
<circle cx="26.5" cy="22.5" r="16" stroke="#FCFFFE"/>
</g>
<path d="M26.2 30C26.2 29.6906 26.0736 29.3938 25.8485 29.175C25.6235 28.9562 25.3183 28.8333 25 28.8333C24.6817 28.8333 24.3765 28.9562 24.1515 29.175C23.9264 29.3938 23.8 29.6906 23.8 30H19.8C19.5878 30 19.3843 29.9181 19.2343 29.7722C19.0843 29.6263 19 29.4285 19 29.2222V16.7778C19 16.5715 19.0843 16.3737 19.2343 16.2278C19.3843 16.0819 19.5878 16 19.8 16H23.8C23.8 16.3094 23.9264 16.6062 24.1515 16.825C24.3765 17.0438 24.6817 17.1667 25 17.1667C25.3183 17.1667 25.6235 17.0438 25.8485 16.825C26.0736 16.6062 26.2 16.3094 26.2 16H34.2C34.4122 16 34.6157 16.0819 34.7657 16.2278C34.9157 16.3737 35 16.5715 35 16.7778V21.0556C34.4696 21.0556 33.9609 21.2604 33.5858 21.6251C33.2107 21.9897 33 22.4843 33 23C33 23.5157 33.2107 24.0103 33.5858 24.3749C33.9609 24.7396 34.4696 24.9444 35 24.9444V29.2222C35 29.4285 34.9157 29.6263 34.7657 29.7722C34.6157 29.9181 34.4122 30 34.2 30H26.2ZM25 21.8333C25.3183 21.8333 25.6235 21.7104 25.8485 21.4916C26.0736 21.2728 26.2 20.9761 26.2 20.6667C26.2 20.3572 26.0736 20.0605 25.8485 19.8417C25.6235 19.6229 25.3183 19.5 25 19.5C24.6817 19.5 24.3765 19.6229 24.1515 19.8417C23.9264 20.0605 23.8 20.3572 23.8 20.6667C23.8 20.9761 23.9264 21.2728 24.1515 21.4916C24.3765 21.7104 24.6817 21.8333 25 21.8333ZM25 26.5C25.3183 26.5 25.6235 26.3771 25.8485 26.1583C26.0736 25.9395 26.2 25.6428 26.2 25.3333C26.2 25.0239 26.0736 24.7272 25.8485 24.5084C25.6235 24.2896 25.3183 24.1667 25 24.1667C24.6817 24.1667 24.3765 24.2896 24.1515 24.5084C23.9264 24.7272 23.8 25.0239 23.8 25.3333C23.8 25.6428 23.9264 25.9395 24.1515 26.1583C24.3765 26.3771 24.6817 26.5 25 26.5Z" fill="#00B488"/>
<defs>
<filter id="filter0_di_1_159" x="0" y="0" width="53" height="53" filterUnits="userSpaceOnUse" color-interpolation-filters="sRGB">
<feFlood flood-opacity="0" result="BackgroundImageFix"/>
<feColorMatrix in="SourceAlpha" type="matrix" values="0 0 0 0 0 0 0 0 0 0 0 0 0 0 0 0 0 0 127 0" result="hardAlpha"/>
<feOffset dy="4"/>
<feGaussianBlur stdDeviation="5"/>
<feComposite in2="hardAlpha" operator="out"/>
<feColorMatrix type="matrix" values="0 0 0 0 0.15 0 0 0 0 0.1475 0 0 0 0 0.1475 0 0 0 0.07 0"/>
<feBlend mode="normal" in2="BackgroundImageFix" result="effect1_dropShadow_1_159"/>
<feBlend mode="normal" in="SourceGraphic" in2="effect1_dropShadow_1_159" result="shape"/>
<feColorMatrix in="SourceAlpha" type="matrix" values="0 0 0 0 0 0 0 0 0 0 0 0 0 0 0 0 0 0 127 0" result="hardAlpha"/>
<feOffset dy="2"/>
<feGaussianBlur stdDeviation="2"/>
<feComposite in2="hardAlpha" operator="arithmetic" k2="-1" k3="1"/>
<feColorMatrix type="matrix" values="0 0 0 0 0 0 0 0 0 0 0 0 0 0 0 0 0 0 0.05 0"/>
<feBlend mode="normal" in2="shape" result="effect2_innerShadow_1_159"/>
</filter>
</defs>
</svg>
