<svg width="34" height="33" viewBox="0 0 34 33" fill="none" xmlns="http://www.w3.org/2000/svg">
<g filter="url(#filter0_i_1_38)">
<circle cx="17" cy="16.5" r="16.5" fill="#FCFFFE"/>
</g>
<circle cx="17" cy="16.5" r="16" stroke="#FCFFFE"/>
<path d="M16.15 24C16.15 23.6906 16.0157 23.3938 15.7766 23.175C15.5375 22.9563 15.2132 22.8333 14.875 22.8333C14.5368 22.8333 14.2125 22.9563 13.9734 23.175C13.7343 23.3938 13.6 23.6906 13.6 24H9.35C9.12457 24 8.90837 23.9181 8.74896 23.7722C8.58955 23.6263 8.5 23.4285 8.5 23.2222V10.7778C8.5 10.5715 8.58955 10.3737 8.74896 10.2278C8.90837 10.0819 9.12457 10 9.35 10H13.6C13.6 10.3094 13.7343 10.6062 13.9734 10.825C14.2125 11.0438 14.5368 11.1667 14.875 11.1667C15.2132 11.1667 15.5375 11.0438 15.7766 10.825C16.0157 10.6062 16.15 10.3094 16.15 10H24.65C24.8754 10 25.0916 10.0819 25.251 10.2278C25.4104 10.3737 25.5 10.5715 25.5 10.7778V15.0556C24.9364 15.0556 24.3959 15.2604 23.9974 15.6251C23.5989 15.9897 23.375 16.4843 23.375 17C23.375 17.5157 23.5989 18.0103 23.9974 18.3749C24.3959 18.7396 24.9364 18.9444 25.5 18.9444V23.2222C25.5 23.4285 25.4104 23.6263 25.251 23.7722C25.0916 23.9181 24.8754 24 24.65 24H16.15ZM14.875 15.8333C15.2132 15.8333 15.5375 15.7104 15.7766 15.4916C16.0157 15.2728 16.15 14.9761 16.15 14.6667C16.15 14.3572 16.0157 14.0605 15.7766 13.8417C15.5375 13.6229 15.2132 13.5 14.875 13.5C14.5368 13.5 14.2125 13.6229 13.9734 13.8417C13.7343 14.0605 13.6 14.3572 13.6 14.6667C13.6 14.9761 13.7343 15.2728 13.9734 15.4916C14.2125 15.7104 14.5368 15.8333 14.875 15.8333ZM14.875 20.5C15.2132 20.5 15.5375 20.3771 15.7766 20.1583C16.0157 19.9395 16.15 19.6428 16.15 19.3333C16.15 19.0239 16.0157 18.7272 15.7766 18.5084C15.5375 18.2896 15.2132 18.1667 14.875 18.1667C14.5368 18.1667 14.2125 18.2896 13.9734 18.5084C13.7343 18.7272 13.6 19.0239 13.6 19.3333C13.6 19.6428 13.7343 19.9395 13.9734 20.1583C14.2125 20.3771 14.5368 20.5 14.875 20.5Z" fill="#00B488"/>
<defs>
<filter id="filter0_i_1_38" x="0.5" y="0" width="33" height="35" filterUnits="userSpaceOnUse" color-interpolation-filters="sRGB">
<feFlood flood-opacity="0" result="BackgroundImageFix"/>
<feBlend mode="normal" in="SourceGraphic" in2="BackgroundImageFix" result="shape"/>
<feColorMatrix in="SourceAlpha" type="matrix" values="0 0 0 0 0 0 0 0 0 0 0 0 0 0 0 0 0 0 127 0" result="hardAlpha"/>
<feOffset dy="2"/>
<feGaussianBlur stdDeviation="5"/>
<feComposite in2="hardAlpha" operator="arithmetic" k2="-1" k3="1"/>
<feColorMatrix type="matrix" values="0 0 0 0 0 0 0 0 0 0 0 0 0 0 0 0 0 0 0.05 0"/>
<feBlend mode="normal" in2="shape" result="effect1_innerShadow_1_38"/>
</filter>
</defs>
</svg>
