<svg width="18" height="14" viewBox="0 0 18 14" fill="none" xmlns="http://www.w3.org/2000/svg">
<path d="M8.15 14C8.15 13.6906 8.01567 13.3938 7.77656 13.175C7.53745 12.9563 7.21315 12.8333 6.875 12.8333C6.53685 12.8333 6.21255 12.9563 5.97344 13.175C5.73433 13.3938 5.6 13.6906 5.6 14H1.35C1.12457 14 0.908365 13.9181 0.748959 13.7722C0.589553 13.6263 0.5 13.4285 0.5 13.2222V0.777778C0.5 0.571498 0.589553 0.373667 0.748959 0.227806C0.908365 0.0819442 1.12457 0 1.35 0H5.6C5.6 0.309419 5.73433 0.606166 5.97344 0.824958C6.21255 1.04375 6.53685 1.16667 6.875 1.16667C7.21315 1.16667 7.53745 1.04375 7.77656 0.824958C8.01567 0.606166 8.15 0.309419 8.15 0H16.65C16.8754 0 17.0916 0.0819442 17.251 0.227806C17.4104 0.373667 17.5 0.571498 17.5 0.777778V5.05556C16.9364 5.05556 16.3959 5.26042 15.9974 5.62507C15.5989 5.98972 15.375 6.4843 15.375 7C15.375 7.5157 15.5989 8.01028 15.9974 8.37493C16.3959 8.73958 16.9364 8.94444 17.5 8.94444V13.2222C17.5 13.4285 17.4104 13.6263 17.251 13.7722C17.0916 13.9181 16.8754 14 16.65 14H8.15ZM6.875 5.83333C7.21315 5.83333 7.53745 5.71042 7.77656 5.49162C8.01567 5.27283 8.15 4.97609 8.15 4.66667C8.15 4.35725 8.01567 4.0605 7.77656 3.84171C7.53745 3.62292 7.21315 3.5 6.875 3.5C6.53685 3.5 6.21255 3.62292 5.97344 3.84171C5.73433 4.0605 5.6 4.35725 5.6 4.66667C5.6 4.97609 5.73433 5.27283 5.97344 5.49162C6.21255 5.71042 6.53685 5.83333 6.875 5.83333ZM6.875 10.5C7.21315 10.5 7.53745 10.3771 7.77656 10.1583C8.01567 9.9395 8.15 9.64275 8.15 9.33333C8.15 9.02391 8.01567 8.72717 7.77656 8.50838C7.53745 8.28958 7.21315 8.16667 6.875 8.16667C6.53685 8.16667 6.21255 8.28958 5.97344 8.50838C5.73433 8.72717 5.6 9.02391 5.6 9.33333C5.6 9.64275 5.73433 9.9395 5.97344 10.1583C6.21255 10.3771 6.53685 10.5 6.875 10.5Z" fill="#00B488"/>
</svg>
